<svg id="Logo" xmlns="http://www.w3.org/2000/svg" width="96.085" height="17.751" viewBox="0 0 96.085 17.751">
  <path id="Tracé_1" data-name="Tracé 1" d="M3.865,6.8H9.746a.251.251,0,0,0,.25-.25V1.462a.5.5,0,0,1,.5-.5h2.616a.5.5,0,0,1,.5.5V15.623a.5.5,0,0,1-.5.5H10.5a.5.5,0,0,1-.5-.5V10.392a.251.251,0,0,0-.25-.25H3.865a.251.251,0,0,0-.25.25v5.227a.5.5,0,0,1-.5.5H.5a.5.5,0,0,1-.5-.5V1.458a.5.5,0,0,1,.5-.5H3.115a.5.5,0,0,1,.5.5V6.544A.252.252,0,0,0,3.865,6.8Z" transform="translate(0 -0.679)" fill="#fff"/>
  <path id="Tracé_2" data-name="Tracé 2" d="M234.293,3.907,231.969,5.24a.491.491,0,0,1-.641-.125,4.024,4.024,0,0,0-3.365-1.649,4.131,4.131,0,0,0-4.169,4.4,4.1,4.1,0,0,0,4.181,4.4,4.211,4.211,0,0,0,3.39-1.624.493.493,0,0,1,.671-.087l2.157,1.529a.5.5,0,0,1,.1.725,7.714,7.714,0,0,1-6.285,2.924,7.612,7.612,0,0,1-7.98-7.863A8.029,8.029,0,0,1,234.46,3.186.507.507,0,0,1,234.293,3.907Z" transform="translate(-155.963)" fill="#fff"/>
  <path id="Tracé_3" data-name="Tracé 3" d="M182.584,4.33h-3.732a.251.251,0,0,0-.25.25V15.633a.5.5,0,0,1-.5.5h-2.616a.5.5,0,0,1-.5-.5V4.58a.251.251,0,0,0-.25-.25h-3.744a.5.5,0,0,1-.5-.5V1.472a.5.5,0,0,1,.5-.5h11.6a.5.5,0,0,1,.5.5V3.83A.508.508,0,0,1,182.584,4.33Z" transform="translate(-120.851 -0.689)" fill="#fff"/>
  <path id="Tracé_4" data-name="Tracé 4" d="M74.38,16.133H63.768a.5.5,0,0,1-.5-.5V1.472a.5.5,0,0,1,.5-.5H74.334a.5.5,0,0,1,.5.5V3.73a.5.5,0,0,1-.5.5h-7.2a.251.251,0,0,0-.25.25V6.6a.251.251,0,0,0,.25.25h6.735a.5.5,0,0,1,.5.5V9.6a.5.5,0,0,1-.5.5H67.137a.251.251,0,0,0-.25.25v2.274a.251.251,0,0,0,.25.25H74.38a.5.5,0,0,1,.5.5v2.262A.5.5,0,0,1,74.38,16.133Z" transform="translate(-44.846 -0.689)" fill="#fff"/>
  <path id="Tracé_5" data-name="Tracé 5" d="M130.434,16.133H119.826a.5.5,0,0,1-.5-.5V1.472a.5.5,0,0,1,.5-.5h10.566a.5.5,0,0,1,.5.5V3.73a.5.5,0,0,1-.5.5h-7.2a.251.251,0,0,0-.25.25V6.6a.251.251,0,0,0,.25.25h6.735a.5.5,0,0,1,.5.5V9.6a.5.5,0,0,1-.5.5h-6.735a.251.251,0,0,0-.25.25v2.274a.251.251,0,0,0,.25.25h7.243a.5.5,0,0,1,.5.5v2.262A.5.5,0,0,1,130.434,16.133Z" transform="translate(-84.582 -0.689)" fill="#fff"/>
  <path id="Tracé_6" data-name="Tracé 6" d="M285.459,6.769h5.877a.251.251,0,0,0,.25-.25V1.43a.5.5,0,0,1,.5-.5H294.7a.5.5,0,0,1,.5.5V9.614a.5.5,0,0,1-.5.5h-9.242a.251.251,0,0,0-.25.25V15.59a.5.5,0,0,1-.5.5h-2.616a.5.5,0,0,1-.5-.5V1.43a.5.5,0,0,1,.5-.5h2.616a.5.5,0,0,1,.5.5V6.515A.252.252,0,0,0,285.459,6.769Z" transform="translate(-199.603 -0.659)" fill="#fff"/>
  <path id="Tracé_7" data-name="Tracé 7" d="M318.715,47.339a2.318,2.318,0,1,1-2.308-2.295A2.372,2.372,0,0,1,318.715,47.339Z" transform="translate(-222.629 -31.929)" fill="#fff"/>
</svg>
